<?xml version="1.0"?>
<svg xmlns="http://www.w3.org/2000/svg" xmlns:xlink="http://www.w3.org/1999/xlink" xmlns:svgjs="http://svgjs.com/svgjs" version="1.1" width="512" height="512" x="0" y="0" viewBox="0 0 512 512" style="enable-background:new 0 0 512 512" xml:space="preserve" class=""><g><link type="text/css" rel="stylesheet" id="dark-mode-general-link"/><link type="text/css" rel="stylesheet" id="dark-mode-custom-link"/><style lang="en" type="text/css" id="dark-mode-custom-style"/><path xmlns="http://www.w3.org/2000/svg" d="m272 481.986v10c-1.056 26.536-38.953 26.516-40 0v-10c1.056-26.536 38.954-26.516 40 0zm60-50c-11.046 0-20 8.954-20 20v40c1.056 26.536 38.953 26.516 40 0v-40c0-11.046-8.954-20-20-20zm-121.02-97c11.046 0 20-8.954 20-20v-11.576c27.513-3.842 48.02-26.479 48.02-54.675v-4.909c.606-30.369-26.069-56.447-56.366-55.84h-18.327c-8.811 0-16.254-7.785-16.254-17v-7.294c0-8.954 6.988-15.706 16.254-15.706h17.331c5.093 0 10.362 3.41 10.362 9.116 0 11.046 8.954 20 20 20s20-8.954 20-20c0-23.971-17.698-43.985-41.02-48.268v-12.848c-1.056-26.536-38.953-26.516-40 0v13.54c-24.624 5.464-43.354 28.746-42.927 54.166v7.294c0 31.43 25.235 57 56.254 57h18.327c9.177 0 16.366 6.958 16.366 15.84v4.909c0 8.694-7.036 15.251-16.366 15.251h-29.784c-4.915 0-9.89-3.091-9.89-9 0-11.046-8.954-20-20-20s-20 8.954-20 20c0 26.861 20.944 48.033 48.02 48.967v11.033c0 11.046 8.954 20 20 20zm-76.991 69.005c7.69 0 15.022-4.461 18.318-11.952 4.448-10.111-.143-21.913-10.254-26.36-61.995-27.271-102.053-88.384-102.053-155.693 5.755-208.511 299.919-232.165 337.892-26.865 1.73 10.907 11.977 18.35 22.886 16.618 10.909-1.73 18.35-11.977 16.62-22.886-7.746-48.833-32.745-93.589-70.393-126.024-134.499-116.763-347.601-19.151-347.004 159.16-.001 83.163 49.436 158.648 125.946 192.305 2.62 1.152 5.352 1.698 8.042 1.697zm318.011-170.005h-50c-26.536 1.056-26.516 38.953 0 40h42.711l-76.853 76.825c-4.025 4.025-9.342 6.263-14.52 6.18-4.491-.083-9.069-1.974-12.753-5.229 0 0-2.751-3.69-3.526-4.465-11.51-11.511-26.922-18.186-42.06-18.311-15.665 0-31.614 6.844-43.306 18.829l-129.847 130.04c-7.804 7.816-7.795 20.48.021 28.285s20.479 7.794 28.285-.021l129.938-130.13c.065-.066.13-.132.195-.198 4.183-4.299 9.573-6.837 14.516-6.803 4.278.035 9.032 2.116 12.948 5.623 10.226 14.016 28.055 22.068 44.844 22.374 16.038.286 31.883-6.221 43.547-17.886l75.86-75.834v39.721c1.056 26.536 38.953 26.516 40 0v-49c0-33.084-26.916-60-60-60zm-157 95c.148 0-.147-.001 0 0zm197 71c-11.046 0-20 8.954-20 20v72c1.056 26.536 38.953 26.516 40 0v-72c0-11.046-8.954-20-20-20zm-80 18c-11.046 0-20 8.954-20 20v54c1.056 26.536 38.953 26.516 40 0v-54c0-11.046-8.954-20-20-20z" fill="#ffffff" data-original="#000000" style=""/></g></svg>
