<?xml version="1.0"?>
<svg xmlns="http://www.w3.org/2000/svg" xmlns:xlink="http://www.w3.org/1999/xlink" xmlns:svgjs="http://svgjs.com/svgjs" version="1.1" width="512" height="512" x="0" y="0" viewBox="0 0 512 512" style="enable-background:new 0 0 512 512" xml:space="preserve"><g><link type="text/css" rel="stylesheet" id="dark-mode-general-link"/><link type="text/css" rel="stylesheet" id="dark-mode-custom-link"/><style lang="en" type="text/css" id="dark-mode-custom-style"/><g xmlns="http://www.w3.org/2000/svg"><path d="m61 0v512h390v-512zm360 482h-330v-452h330z" fill="#ffffff" data-original="#000000" style=""/><path d="m391 451c0-19.677 0-185.635 0-210-2.942 0-262.226 0-270 0v210zm-30-30h-150v-30h150zm0-60h-150v-30h150zm0-90v30h-150v-30zm-210 150v-150h30v150z" fill="#ffffff" data-original="#000000" style=""/><path d="m198.573 91h114.853v30h-114.853z" transform="matrix(.707 -.707 .707 .707 .027 212.066)" fill="#ffffff" data-original="#000000" style=""/><path d="m271 121h30v30h-30z" fill="#ffffff" data-original="#000000" style=""/><path d="m211 61h30v30h-30z" fill="#ffffff" data-original="#000000" style=""/><path d="m121 181h120v30h-120z" fill="#ffffff" data-original="#000000" style=""/><path d="m271 181h120v30h-120z" fill="#ffffff" data-original="#000000" style=""/></g></g></svg>
